<svg width="199" height="17" viewBox="0 0 199 17" fill="none" xmlns="http://www.w3.org/2000/svg">
<path d="M9.83496 7.75293C9.83496 8.64941 9.58008 9.33496 9.07031 9.80957C8.56641 10.2783 7.85156 10.5127 6.92578 10.5127C6.00586 10.5127 5.26758 10.2051 4.71094 9.58984C4.16016 8.96875 3.88477 8.125 3.88477 7.05859V6.0918C3.88477 5.06055 4.16309 4.2373 4.71973 3.62207C5.28223 3.00098 6.01758 2.69043 6.92578 2.69043C7.86328 2.69043 8.58398 2.93066 9.08789 3.41113C9.5918 3.8916 9.84375 4.56836 9.84375 5.44141H8.56055C8.56055 4.86133 8.41992 4.44824 8.13867 4.20215C7.86328 3.9502 7.45898 3.82422 6.92578 3.82422C6.375 3.82422 5.94141 4.02637 5.625 4.43066C5.30859 4.83496 5.15039 5.39746 5.15039 6.11816V7.11133C5.15039 7.81445 5.30859 8.36816 5.625 8.77246C5.94141 9.17676 6.375 9.37891 6.92578 9.37891C7.46484 9.37891 7.86914 9.25586 8.13867 9.00977C8.41406 8.76367 8.55176 8.34473 8.55176 7.75293H9.83496ZM1.81055 6.59277C1.81055 7.60059 2.04492 8.53516 2.51367 9.39648C2.98242 10.252 3.61816 10.9229 4.4209 11.4092C5.22949 11.8955 6.10254 12.1387 7.04004 12.1387C7.97754 12.1387 8.84766 11.8955 9.65039 11.4092C10.4531 10.9229 11.0889 10.252 11.5576 9.39648C12.0264 8.53516 12.2607 7.60059 12.2607 6.59277C12.2607 5.59668 12.0293 4.67383 11.5664 3.82422C11.1035 2.97461 10.4678 2.30664 9.65918 1.82031C8.85645 1.32812 7.9834 1.08203 7.04004 1.08203C6.10254 1.08203 5.22949 1.3252 4.4209 1.81152C3.6123 2.29199 2.97363 2.95996 2.50488 3.81543C2.04199 4.6709 1.81055 5.59668 1.81055 6.59277ZM0.799805 6.59277C0.799805 5.40918 1.07227 4.31055 1.61719 3.29688C2.16797 2.2832 2.92676 1.48633 3.89355 0.90625C4.86621 0.320312 5.91504 0.0273438 7.04004 0.0273438C8.16504 0.0273438 9.21094 0.320312 10.1777 0.90625C11.1445 1.48633 11.9004 2.2832 12.4453 3.29688C12.9961 4.31055 13.2715 5.40918 13.2715 6.59277C13.2715 7.74707 13.0078 8.82812 12.4805 9.83594C11.9531 10.8438 11.2031 11.6553 10.2305 12.2705C9.26367 12.8799 8.2002 13.1846 7.04004 13.1846C5.88574 13.1846 4.82227 12.8828 3.84961 12.2793C2.88281 11.6699 2.13281 10.8613 1.59961 9.85352C1.06641 8.8457 0.799805 7.75879 0.799805 6.59277ZM29.5137 8.93945C29.3555 10.293 28.8545 11.3389 28.0107 12.0771C27.1729 12.8096 26.0566 13.1758 24.6621 13.1758C23.1504 13.1758 21.9375 12.6338 21.0234 11.5498C20.1152 10.4658 19.6611 9.01562 19.6611 7.19922V5.96875C19.6611 4.7793 19.8721 3.7334 20.2939 2.83105C20.7217 1.92871 21.3252 1.2373 22.1045 0.756836C22.8838 0.270508 23.7861 0.0273438 24.8115 0.0273438C26.1709 0.0273438 27.2607 0.408203 28.0811 1.16992C28.9014 1.92578 29.3789 2.97461 29.5137 4.31641H27.8174C27.6709 3.29688 27.3516 2.55859 26.8594 2.10156C26.373 1.64453 25.6904 1.41602 24.8115 1.41602C23.7334 1.41602 22.8867 1.81445 22.2715 2.61133C21.6621 3.4082 21.3574 4.54199 21.3574 6.0127V7.25195C21.3574 8.64062 21.6475 9.74512 22.2275 10.5654C22.8076 11.3857 23.6191 11.7959 24.6621 11.7959C25.5996 11.7959 26.3174 11.585 26.8154 11.1631C27.3193 10.7354 27.6533 9.99414 27.8174 8.93945H29.5137ZM37.7227 3.49023H39.3486V13H37.7227V6.06543L33.3369 13H31.7109V3.49023H33.3369V10.4336L37.7227 3.49023ZM49.7285 13H48.1025V8.93945H43.7344V13H42.0996V3.49023H43.7344V7.6123H48.1025V3.49023H49.7285V13ZM55.5381 6.96191L57.6475 3.49023H59.5459L56.4346 8.19238L59.6426 13H57.7617L55.5645 9.44043L53.3672 13H51.4775L54.6855 8.19238L51.5742 3.49023H53.4551L55.5381 6.96191ZM69.3105 8.35059C69.3105 9.79785 68.9795 10.9639 68.3174 11.8486C67.6553 12.7334 66.7588 13.1758 65.6279 13.1758C64.4736 13.1758 63.5654 12.8096 62.9033 12.0771V16.6562H61.2773V3.49023H62.7627L62.8418 4.54492C63.5039 3.72461 64.4238 3.31445 65.6016 3.31445C66.7441 3.31445 67.6465 3.74512 68.3086 4.60645C68.9766 5.46777 69.3105 6.66602 69.3105 8.20117V8.35059ZM67.6846 8.16602C67.6846 7.09375 67.4561 6.24707 66.999 5.62598C66.542 5.00488 65.915 4.69434 65.1182 4.69434C64.1338 4.69434 63.3955 5.13086 62.9033 6.00391V10.5479C63.3896 11.415 64.1338 11.8486 65.1357 11.8486C65.915 11.8486 66.5332 11.541 66.9902 10.9258C67.4531 10.3047 67.6846 9.38477 67.6846 8.16602ZM70.9541 8.15723C70.9541 7.22559 71.1357 6.3877 71.499 5.64355C71.8682 4.89941 72.3779 4.3252 73.0283 3.9209C73.6846 3.5166 74.4316 3.31445 75.2695 3.31445C76.5645 3.31445 77.6104 3.7627 78.4072 4.65918C79.21 5.55566 79.6113 6.74805 79.6113 8.23633V8.35059C79.6113 9.27637 79.4326 10.1084 79.0752 10.8467C78.7236 11.5791 78.2168 12.1504 77.5547 12.5605C76.8984 12.9707 76.1426 13.1758 75.2871 13.1758C73.998 13.1758 72.9521 12.7275 72.1494 11.8311C71.3525 10.9346 70.9541 9.74805 70.9541 8.27148V8.15723ZM72.5889 8.35059C72.5889 9.40527 72.832 10.252 73.3184 10.8906C73.8105 11.5293 74.4668 11.8486 75.2871 11.8486C76.1133 11.8486 76.7695 11.5264 77.2559 10.8818C77.7422 10.2314 77.9854 9.32324 77.9854 8.15723C77.9854 7.11426 77.7363 6.27051 77.2383 5.62598C76.7461 4.97559 76.0898 4.65039 75.2695 4.65039C74.4668 4.65039 73.8193 4.96973 73.3271 5.6084C72.835 6.24707 72.5889 7.16113 72.5889 8.35059ZM89.4199 13H87.7939V8.93945H83.4258V13H81.791V3.49023H83.4258V7.6123H87.7939V3.49023H89.4199V13ZM98.1914 3.49023H99.8174V13H98.1914V6.06543L93.8057 13H92.1797V3.49023H93.8057V10.4336L98.1914 3.49023ZM107.657 6.0918C107.657 5.64648 107.487 5.29492 107.147 5.03711C106.808 4.77344 106.342 4.6416 105.75 4.6416C105.176 4.6416 104.695 4.79102 104.309 5.08984C103.928 5.38867 103.737 5.74023 103.737 6.14453H102.12C102.12 5.31836 102.466 4.6416 103.157 4.11426C103.849 3.58691 104.713 3.32324 105.75 3.32324C106.863 3.32324 107.73 3.56348 108.352 4.04395C108.973 4.51855 109.283 5.19824 109.283 6.08301C109.283 6.51074 109.154 6.90332 108.896 7.26074C108.639 7.61816 108.272 7.90234 107.798 8.11328C108.905 8.48828 109.459 9.22656 109.459 10.3281C109.459 11.2012 109.122 11.8926 108.448 12.4023C107.774 12.9121 106.875 13.167 105.75 13.167C104.654 13.167 103.749 12.9004 103.034 12.3672C102.325 11.8281 101.971 11.1016 101.971 10.1875H103.588C103.588 10.6504 103.793 11.0488 104.203 11.3828C104.619 11.7109 105.135 11.875 105.75 11.875C106.371 11.875 106.872 11.7314 107.253 11.4443C107.634 11.1572 107.824 10.7852 107.824 10.3281C107.824 9.79492 107.663 9.41406 107.341 9.18555C107.024 8.95117 106.529 8.83398 105.855 8.83398H104.229V7.46289H105.996C107.104 7.43359 107.657 6.97656 107.657 6.0918ZM117.439 13C117.346 12.8125 117.27 12.4785 117.211 11.998C116.455 12.7832 115.553 13.1758 114.504 13.1758C113.566 13.1758 112.796 12.9121 112.192 12.3848C111.595 11.8516 111.296 11.1777 111.296 10.3633C111.296 9.37305 111.671 8.60547 112.421 8.06055C113.177 7.50977 114.237 7.23438 115.603 7.23438H117.185V6.4873C117.185 5.91895 117.015 5.46777 116.675 5.13379C116.335 4.79395 115.834 4.62402 115.172 4.62402C114.592 4.62402 114.105 4.77051 113.713 5.06348C113.32 5.35645 113.124 5.71094 113.124 6.12695H111.489C111.489 5.65234 111.656 5.19531 111.99 4.75586C112.33 4.31055 112.787 3.95898 113.361 3.70117C113.941 3.44336 114.577 3.31445 115.269 3.31445C116.364 3.31445 117.223 3.58984 117.844 4.14062C118.465 4.68555 118.787 5.43848 118.811 6.39941V10.7764C118.811 11.6494 118.922 12.3438 119.145 12.8594V13H117.439ZM114.741 11.7607C115.251 11.7607 115.734 11.6289 116.191 11.3652C116.648 11.1016 116.979 10.7588 117.185 10.3369V8.38574H115.91C113.918 8.38574 112.922 8.96875 112.922 10.1348C112.922 10.6445 113.092 11.043 113.432 11.3301C113.771 11.6172 114.208 11.7607 114.741 11.7607ZM121.5 3.49023H123.135V11.6729H127.512V3.49023H129.138V11.6729H130.271L130.113 15.8213H128.654V13H121.5V3.49023ZM138.182 3.49023H139.808V13H138.182V6.06543L133.796 13H132.17V3.49023H133.796V10.4336L138.182 3.49023ZM149.687 3.49023V13H148.052V9.2998H145.6L143.358 13H141.601L143.991 9.05371C143.382 8.83105 142.913 8.48828 142.585 8.02539C142.263 7.55664 142.102 7.01172 142.102 6.39062C142.102 5.52344 142.427 4.82617 143.077 4.29883C143.728 3.76562 144.598 3.49609 145.688 3.49023H149.687ZM143.736 6.4082C143.736 6.87109 143.895 7.24609 144.211 7.5332C144.527 7.81445 144.946 7.95801 145.468 7.96387H148.052V4.80859H145.714C145.11 4.80859 144.63 4.95801 144.272 5.25684C143.915 5.5498 143.736 5.93359 143.736 6.4082ZM152.244 15.5488L151.321 14.916C151.872 14.1484 152.159 13.3574 152.183 12.543V11.0752H153.773V12.3496C153.773 12.9414 153.627 13.5332 153.334 14.125C153.047 14.7168 152.684 15.1914 152.244 15.5488ZM168.513 13H160.128V11.8311L164.558 6.90918C165.214 6.16504 165.665 5.56152 165.911 5.09863C166.163 4.62988 166.289 4.14648 166.289 3.64844C166.289 2.98047 166.087 2.43262 165.683 2.00488C165.278 1.57715 164.739 1.36328 164.065 1.36328C163.257 1.36328 162.627 1.59473 162.176 2.05762C161.73 2.51465 161.508 3.15332 161.508 3.97363H159.882C159.882 2.7959 160.26 1.84375 161.016 1.11719C161.777 0.390625 162.794 0.0273438 164.065 0.0273438C165.255 0.0273438 166.195 0.34082 166.887 0.967773C167.578 1.58887 167.924 2.41797 167.924 3.45508C167.924 4.71484 167.121 6.21484 165.516 7.95508L162.088 11.6729H168.513V13ZM178.26 7.54199C178.26 9.44629 177.935 10.8613 177.284 11.7871C176.634 12.7129 175.617 13.1758 174.234 13.1758C172.869 13.1758 171.858 12.7246 171.202 11.8223C170.546 10.9141 170.206 9.56055 170.183 7.76172V5.59082C170.183 3.70996 170.508 2.3125 171.158 1.39844C171.809 0.484375 172.828 0.0273438 174.217 0.0273438C175.594 0.0273438 176.607 0.469727 177.258 1.35449C177.908 2.2334 178.242 3.59277 178.26 5.43262V7.54199ZM176.634 5.31836C176.634 3.94141 176.44 2.93945 176.054 2.3125C175.667 1.67969 175.055 1.36328 174.217 1.36328C173.385 1.36328 172.778 1.67676 172.397 2.30371C172.017 2.93066 171.82 3.89453 171.809 5.19531V7.79688C171.809 9.17969 172.008 10.2021 172.406 10.8643C172.811 11.5205 173.42 11.8486 174.234 11.8486C175.037 11.8486 175.632 11.5381 176.019 10.917C176.411 10.2959 176.616 9.31738 176.634 7.98145V5.31836ZM188.728 13H180.343V11.8311L184.772 6.90918C185.429 6.16504 185.88 5.56152 186.126 5.09863C186.378 4.62988 186.504 4.14648 186.504 3.64844C186.504 2.98047 186.302 2.43262 185.897 2.00488C185.493 1.57715 184.954 1.36328 184.28 1.36328C183.472 1.36328 182.842 1.59473 182.391 2.05762C181.945 2.51465 181.723 3.15332 181.723 3.97363H180.097C180.097 2.7959 180.475 1.84375 181.23 1.11719C181.992 0.390625 183.009 0.0273438 184.28 0.0273438C185.47 0.0273438 186.41 0.34082 187.102 0.967773C187.793 1.58887 188.139 2.41797 188.139 3.45508C188.139 4.71484 187.336 6.21484 185.73 7.95508L182.303 11.6729H188.728V13ZM198.475 7.54199C198.475 9.44629 198.149 10.8613 197.499 11.7871C196.849 12.7129 195.832 13.1758 194.449 13.1758C193.084 13.1758 192.073 12.7246 191.417 11.8223C190.761 10.9141 190.421 9.56055 190.397 7.76172V5.59082C190.397 3.70996 190.723 2.3125 191.373 1.39844C192.023 0.484375 193.043 0.0273438 194.432 0.0273438C195.809 0.0273438 196.822 0.469727 197.473 1.35449C198.123 2.2334 198.457 3.59277 198.475 5.43262V7.54199ZM196.849 5.31836C196.849 3.94141 196.655 2.93945 196.269 2.3125C195.882 1.67969 195.27 1.36328 194.432 1.36328C193.6 1.36328 192.993 1.67676 192.612 2.30371C192.231 2.93066 192.035 3.89453 192.023 5.19531V7.79688C192.023 9.17969 192.223 10.2021 192.621 10.8643C193.025 11.5205 193.635 11.8486 194.449 11.8486C195.252 11.8486 195.847 11.5381 196.233 10.917C196.626 10.2959 196.831 9.31738 196.849 7.98145V5.31836Z" fill="white"/>
</svg>
